<svg id="Layer_1" data-name="Layer 1" xmlns="http://www.w3.org/2000/svg" viewBox="0 0 1000 1000">
    <defs>
        <style>.cls-1{fill:#ea1d63;}.cls-2{fill:#ea1d63;}</style>
    </defs>
    <path class="cls-1"
          d="M188.44,534.77c.55-1.26,1.07-6.14,3.47-7.37,10.1-5.18,8.71-13.93,8.72-22.67q.15-135.8.45-271.58c0-6.61.8-12.59-7.3-17-3.64-2-5.87-12.36-4-17,1.81-4.44,9.47-7.22,15.1-9.17,6.7-2.33,14.79-1.48,20.86-4.69,18.77-10,37.06-20.88,55.11-32.1,5.9-3.66,10.48-9.45,15.75-14.16,2.05-1.84,4.23-4.66,6.55-4.88,26.86-2.46,46.09-21,68.31-32.83,35.72-19,70.33-40.18,105.18-60.82,4.07-2.41,8.07-6.73,9.68-11.07,2.77-7.45,7.79-11,14.6-9.33,5.09,1.25,9.66,5.45,13.91,9,3.1,2.58,4.67,7.3,8,9.24q68.08,39.76,136.58,78.85c12.09,6.86,25.69,11.11,37.6,18.23,25,14.94,49.12,31.35,74.08,46.37,6.86,4.13,15.26,6.15,23.23,7.87,11.08,2.39,16.33,13.1,11.4,23.88-2.23,4.86-4.29,10.38-4.29,15.6Q801.32,371.58,802,514c0,4.81,2.16,9.86,4.24,14.38,4.2,9.17,1.34,18.43-6.88,22.48-23.46,11.56-47.32,22.46-70,35.34-54,30.61-107.51,62-161,93.5-20.18,11.88-40.06,24.33-59.45,37.46-6.8,4.6-11.7,3.33-17.42-.28-23.85-15-47.31-30.72-71.59-45q-98.87-58.2-198.39-115.27c-4.65-2.68-10.79-3.41-16.33-3.78A18.44,18.44,0,0,1,188.44,534.77ZM434,277.81c15,16.65,27.89,31,40.77,45.33C507,359,539.09,395.06,571.49,430.79c9.65,10.65,16.94,8.89,21.38-4.54,15.73-47.61,31.91-95.07,46.75-143,6-19.21,18.18-37.21,12.07-59.42-5.68-20.66-27-44.51-52.47-30.52C560,214.93,519.3,233.78,479.32,254,464.5,261.44,449.93,269.41,434,277.81ZM580.24,460c-9.41,2.58-15.88,4.11-22.2,6.12q-45.42,14.47-90.76,29.18-56,18.12-111.89,36.4c-6.51,2.13-9.76,5.16-3.6,11.86C395.44,591,438.85,638.68,482.63,686c2.27,2.46,7.05,3,10.79,3.67,16,3.06,16.46-10.66,19.5-19.74,20.62-61.63,40.67-123.45,60.78-185.26C576.07,477.4,577.65,469.84,580.24,460Zm-7.57-10.71c-12.95-14.18-24-26.13-34.91-38.26q-53.11-59.17-106.15-118.44c-5.66-6.29-9.95-7-13.18,2.77-19.9,60.48-40.21,120.82-60.25,181.25-4.56,13.73-8.6,27.64-12.88,41.46l2.73,3.42ZM430.86,257.06c.21,11,4.32,12.53,16.31,6.58q77.16-38.31,154.12-77c9.58-4.81,11.3-14.86,4.3-22.92Q559,110.08,512.4,56.52c-9.35-10.7-12.59-9.93-17.11,3.61q-25.86,77.38-51.6,154.81C438.94,229.32,434.85,243.92,430.86,257.06ZM214.32,404.38c-.92,2.9-1.38,3.66-1.38,4.43.1,37.46-.46,74.95.93,112.37.31,8.27,5.57,18.83,12,23.88,12.76,10,28,16.79,42.14,25q82.66,48,165.33,96c11.45,6.63,23.22,12.69,34.84,19,.9-3.45.56-5-.38-6.07Q438.48,647,409,615.14c-19.59-21.28-39.51-42.28-58.49-64.1-4.91-5.65-9.17-8.79-16.69-10.46-4.78-1.05-8.56-8.58-11.83-13.8-2.13-3.41-1.4-8.93-3.92-11.75q-47.74-53.5-96.19-106.37C220.25,406.87,217.49,406.13,214.32,404.38ZM586.76,465.1c-25.67,78.63-50.36,154.22-75,229.82,1.09.64,2.18,1.28,3.26,1.93L699,590.6Zm-373-85c28.82-14.49,54.92-28.39,81.72-40.79,15.29-7.07,20.6-18,19.34-33.82-1-12.81-1.28-25.69-2.18-38.52q-3.49-49.94-7.31-99.86c-.75-9.67-4.79-11.65-13.63-6.65-19.2,10.86-37.91,22.64-57.46,32.81-15.49,8.06-21,20.85-21.1,36.87-.22,45.64-.09,91.29-.05,136.93C213,370.47,213.38,373.91,213.71,380.06ZM421.93,263.5c24.41-74.23,48.58-144.79,69.68-216.59a38.09,38.09,0,0,0-13.48,4.92q-73.81,42.84-147.57,85.76c-11.38,6.59-12.25,11.12-3.22,21.27Q360.1,195.7,393,232.43C401.69,242.13,410.74,251.52,421.93,263.5ZM788.8,363.61c.39-6.56.81-10.38.82-14.2q.07-53.9,0-107.8c0-10.67,2.18-22-9.36-29.11-1.61-1-1.55-4.4-2.79-6.35-2.76-4.37-4.94-10-9-12.53-19-11.88-38.6-22.94-58-34.16-11.46-6.61-17.93-3.51-18,9.58,0,13.61,1.85,27.21,2.54,40.83.8,16.06-3.82,33.2,9.9,46.5.55.54,1.21,1.55,1,2.12-3.15,10.94,5.16,16.22,11,22.83,6.63,7.51,12.94,15.3,19.54,22.85C753.29,323.32,770.13,342.39,788.8,363.61Zm.85,30.53c-1.86-.54-2.74-1.13-3.38-.93-22.08,6.69-44.51,12.47-66,20.74-7.71,3-14.06,10.39-13.35,22,2.41,39,3.4,78,5.29,117,.43,9,2.24,18,3.59,28.23,17.32-10.13,32-19,46.92-27.35,8.42-4.72,17.37-8.35,15.2-20.89-.35-2,2.07-5.85,4.16-6.83,8.45-4,7.7-11.17,7.61-18.49-.17-13.74-.05-27.49-.05-41.23ZM595,440c5.15-1.06,8.93-1.49,12.49-2.63,25-7.95,49.8-16.4,74.89-23.94,10.93-3.28,15.7-9.86,15.13-20.73-.59-11.17-1.56-22.32-2.36-33.48-2.35-33.11,2.51-66.66-11.34-99.07-4.56-10.68-10-17.87-20.59-27.59ZM329.43,515.34c-4.24-61.7-8.22-119.62-12.33-179.41-31.44,15.48-60.41,29.67-89.3,44-15.85,7.88-15.76,8-3.67,21.8,3.17,3.6,6.06,7.45,9.28,11q42,46.29,84.12,92.46C320.21,508.15,323.61,510.43,329.43,515.34Zm377.87,66.4c-1.76-40-3.27-76-5-112-.6-12.78-1.37-25.56-2.52-38.3-.54-6.06-2.12-10.66-10.68-7.71-26.95,9.29-54.21,17.68-81.25,26.7-11,3.67-11.85,7.06-4.5,15.37q36.66,41.4,73.46,82.66C686.11,558.78,695.6,569,707.3,581.74ZM341.08,500.68l2.43-.19c23.12-69.95,46.24-139.91,70.43-213.12-27.4,13.49-51.36,24.5-74.35,37.26-4.77,2.65-8.45,11.92-8.29,18,1,38.18,3,76.35,5.17,114.49C337.3,471.69,339.5,486.17,341.08,500.68ZM319.73,167.41c-1,3.67-2.24,6-2.09,8.21q4.37,66,9,132c.77,10.9,5.21,13.47,14.94,8.65q30-14.88,59.9-29.86c8.33-4.16,11.15-15.95,4.82-23C378,231.67,349.39,200.21,319.73,167.41ZM700.32,271.94c-1.24,3.53-2.73,5.69-2.61,7.76,2.24,37.24,4.7,74.47,7.06,111.71.77,12,2.81,13.54,15,9.88,17.47-5.24,34.93-10.57,52.28-16.2,6.11-2,11.89-5,19.73-8.3C760.67,341.1,731,307,700.32,271.94ZM515.12,46.61l-2.35,2.9c33.46,38.08,66.54,76.51,100.86,113.8,4.52,4.91,16.22,7,23.13,5.08C648.82,165.05,660,158,671,151.61c3.11-1.78,4.59-6.42,7.27-10.43ZM681.4,157.76q-1.62-1.45-3.26-2.89c-13.48,6.71-27.1,13.17-40.39,20.25-5.62,3-8,7.78-2.83,13.58,6.1,6.89,12.16,13.82,18.28,20.71,4.37,4.93,8.71,4.46,10.91-1.52C670.2,191.29,675.68,174.48,681.4,157.76Zm9.52,91.12c-1.64-27.1-3.14-52-4.84-80C668.88,201.56,664.14,231.08,690.92,248.88Z"/>
    <path class="cls-2"
          d="M237,871.93C234.4,817.7,286.44,761.35,350.59,764,406.91,766.36,454.2,812,454.05,871.86,453.89,935.49,404,981.34,344,980.31,287.51,979.34,235.74,931.75,237,871.93Zm189.08.88c0-45.82-34.63-82.1-79.08-81.63-49.07.51-82.71,37.5-82.59,80.59.13,46.79,35.81,81.52,81.88,81.31C390.32,952.88,424.44,920.6,426,872.81Z"/>
    <path class="cls-2"
          d="M726.72,862.61c19.46-29.24,37.9-57.08,56.51-84.82,7.69-11.46,15.24-14,22.55-8,8.34,6.88,6.64,14.17,1.24,22.22q-31.24,46.5-61.9,93.4a23.72,23.72,0,0,0-3.78,11.91c-.38,19.78-.17,39.56-.17,59.34,0,9.7-2.4,17.82-13.92,18.65-9.69.7-15-5.89-15.12-18.74-.18-18.56.47-37.16-.33-55.7A41.28,41.28,0,0,0,705.85,881c-19.32-29.91-39.27-59.42-59.32-88.87-5.46-8-7.16-15.4,1-22.13,7.35-6,15.06-3.81,21.88,6.37C688.32,804.53,707,832.84,726.72,862.61Z"/>
    <path class="cls-2"
          d="M552.09,793.48c0,55.94,0,110,0,164.15,0,12.47-5.76,19.37-15.68,17.36-4.11-.83-8.62-5-10.74-8.9s-2.07-9.33-2-14.08c.35-43.57,1-87.14,1.28-130.71,0-8.76-1.4-17.54-2.3-27.82-17.46,0-35.1-.21-52.74.08-9.09.15-16.52-2.08-16.92-12.34-.43-10.94,7.59-14.3,16.8-14.33,45.62-.19,91.25-.09,136.87-.09,9.43,0,15.4,4.07,15.75,14.09.4,11.21-6.53,12.92-15.86,12.7C588.81,793.19,571.13,793.48,552.09,793.48Z"/>
    <path class="cls-2"
          d="M217.56,872.26q0,42.43,0,84.86c0,12.43-4.57,18.21-14,18.25-9.69,0-14.43-5.47-14.45-17.92q-.16-84.87,0-169.73a27,27,0,0,1,.21-6c1.88-8,5.78-15.22,14.9-14.54s13.54,7.13,13.5,16.62C217.47,813.26,217.56,842.76,217.56,872.26Z"/>
</svg>
